<svg xmlns="http://www.w3.org/2000/svg" version="1.1" xmlns:xlink="http://www.w3.org/1999/xlink" xmlns:svgjs="http://svgjs.dev/svgjs" width="1500" height="935" viewBox="0 0 1500 935"><g transform="matrix(1,0,0,1,-0.9090909090909918,0.3785425101214628)"><svg viewBox="0 0 396 247" data-background-color="#0a1627" preserveAspectRatio="xMidYMid meet" height="935" width="1500" xmlns="http://www.w3.org/2000/svg" xmlns:xlink="http://www.w3.org/1999/xlink"><g id="tight-bounds" transform="matrix(1,0,0,1,0.2400000000000091,-0.09999999999999432)"><svg viewBox="0 0 395.52 247.2" height="247.2" width="395.52"><g><svg></svg></g><g><svg viewBox="0 0 395.52 247.2" height="247.2" width="395.52"><g transform="matrix(1,0,0,1,75.54432000000001,103.60316028608169)"><svg viewBox="0 0 244.43135999999996 39.993679427836604" height="39.993679427836604" width="244.43135999999996"><g><svg viewBox="0 0 363.41380739587044 59.4615" height="39.993679427836604" width="244.43135999999996"><g><svg viewBox="0 0 363.41380739587044 59.4615" height="59.4615" width="363.41380739587044"><g id="textblocktransform"><svg viewBox="0 0 363.41380739587044 59.4615" height="59.4615" width="363.41380739587044" id="textblock"><g><svg viewBox="0 0 363.41380739587044 59.4615" height="59.4615" width="363.41380739587044"><g><svg><g></g><g></g></svg></g><g><svg><g></g><g><svg></svg></g></svg></g><g id="text-0"><svg viewBox="0 0 363.41380739587044 59.4615" height="59.4615" width="363.41380739587044"><g transform="matrix(1,0,0,1,0,6.7307500000000005)"><svg width="129.65000000000003" viewBox="3.35 -36.15 129.64000000000001 36.75" height="36.75" data-palette-color="#fe0039"><path d="M3.35 0L3.35-36.15 7.75-36.15 7.75-23.35 8.1-23.35Q10.85-26.9 16.4-26.9L16.4-26.9Q24.6-26.9 24.6-17.95L24.6-17.95 24.6 0 20.2 0 20.2-17.65Q20.2-20.8 18.8-22.03 17.4-23.25 14.75-23.25L14.75-23.25Q12.85-23.25 11.25-22.33 9.65-21.4 8.7-19.65 7.75-17.9 7.75-15.55L7.75-15.55 7.75 0 3.35 0ZM42.3 0.6Q35.95 0.6 32.85-2.75 29.75-6.1 29.75-13.15L29.75-13.15Q29.75-20.2 32.85-23.55 35.95-26.9 42.3-26.9L42.3-26.9Q48-26.9 50.82-23.88 53.65-20.85 53.65-14.15L53.65-14.15 53.65-11.95 34.3-11.95Q34.55-7.4 36.47-5.23 38.4-3.05 42.3-3.05L42.3-3.05Q45.45-3.05 47.4-4.5 49.35-5.95 49.35-8.95L49.35-8.95 53.65-8.95Q53.65-4.35 50.47-1.88 47.3 0.6 42.3 0.6L42.3 0.6ZM34.4-15.6L49.05-15.6Q49.05-23.25 42.3-23.25L42.3-23.25Q38.55-23.25 36.67-21.45 34.8-19.65 34.4-15.6L34.4-15.6ZM66.09 0.6Q62.7 0.6 60.05-1 57.39-2.6 57.39-6.8L57.39-6.8Q57.39-11.85 61.89-13.73 66.39-15.6 74.89-15.6L74.89-15.6 74.89-18.5Q74.89-20.8 73.59-22.03 72.3-23.25 68.89-23.25L68.89-23.25Q65.69-23.25 64.32-22.05 62.95-20.85 62.95-19.1L62.95-19.1 62.95-18.5 58.7-18.5Q58.64-18.8 58.64-19.6L58.64-19.6Q58.64-23.1 61.55-25 64.44-26.9 69.3-26.9L69.3-26.9Q74.19-26.9 76.75-24.85 79.3-22.8 79.3-19.05L79.3-19.05 79.3-4.8Q79.3-3.9 79.8-3.48 80.3-3.05 81.05-3.05L81.05-3.05 83.05-3.05 83.05-0.2Q81.75 0.4 79.64 0.4L79.64 0.4Q77.94 0.4 76.8-0.63 75.64-1.65 75.25-3.35L75.25-3.35 74.89-3.35Q73.55-1.5 71.22-0.45 68.89 0.6 66.09 0.6L66.09 0.6ZM67.25-3.05Q69.19-3.05 70.94-3.85 72.69-4.65 73.8-6.23 74.89-7.8 74.89-10.05L74.89-10.05 74.89-11.95Q68.44-11.95 65.22-10.93 61.99-9.9 61.99-7.05L61.99-7.05Q61.99-4.9 63.32-3.98 64.64-3.05 67.25-3.05L67.25-3.05ZM86.74 0L86.74-36.15 91.14-36.15 91.14 0 86.74 0ZM103.79 0.55Q101.09 0.55 99.84-1.05 98.59-2.65 98.59-5L98.59-5 98.59-22.65 95.39-22.65 95.39-26.3 98.64-26.3 99.59-33.6 102.99-33.6 102.99-26.3 107.44-26.3 107.44-22.65 102.99-22.65 102.99-5.4Q102.99-3.05 105.19-3.05L105.19-3.05 107.44-3.05 107.44-0.15Q106.79 0.15 105.74 0.35 104.69 0.55 103.79 0.55L103.79 0.55ZM111.74 0L111.74-36.15 116.14-36.15 116.14-23.35 116.49-23.35Q119.24-26.9 124.79-26.9L124.79-26.9Q132.99-26.9 132.99-17.95L132.99-17.95 132.99 0 128.59 0 128.59-17.65Q128.59-20.8 127.19-22.03 125.79-23.25 123.14-23.25L123.14-23.25Q121.24-23.25 119.64-22.33 118.04-21.4 117.09-19.65 116.14-17.9 116.14-15.55L116.14-15.55 116.14 0 111.74 0Z" opacity="1" transform="matrix(1,0,0,1,0,0)" fill="#fe0039" class="undefined-yy-0"></path></svg></g><g><svg xmlns="http://www.w3.org/2000/svg" xmlns:xlink="http://www.w3.org/1999/xlink" version="1.1" x="143.68850000000003" y="0" viewBox="25.914 21.910000000000004 48.17299999999999 56.18" enable-background="new 0 0 100 100" xml:space="preserve" height="59.4615" width="50.98680739587041" class="icon-cg-0" data-fill-palette-color="accent" id="cg-0"><g fill="#c1c1c1" data-fill-palette-color="accent"><path d="M49.883 30.812c-1.957 0-3.56 1.597-3.56 3.561 0 1.952 1.603 3.47 3.56 3.47 1.867 0 3.47-1.518 3.47-3.47C53.353 32.409 51.75 30.812 49.883 30.812M60.03 36.325l-5.514-0.355 4.093 3.74c0.89 0.804 0.89 2.229 0 3.114-0.883 0.803-2.319 0.888-3.117-0.085l-3.651-4.099-0.005 5.518c0.086 1.246-0.613 2.229-1.863 2.229-1.155 0-1.882-0.983-1.787-2.229l0.01-5.518-3.735 4.099c-0.809 0.888-2.229 0.888-3.12 0-0.802-0.895-0.802-2.316 0.091-3.12l4.089-3.649-5.514 0.36c-1.16 0.087-2.139-0.979-2.139-2.229 0-1.155 0.979-2.226 2.139-2.135l5.609 0.357-4.185-3.737c-0.893-0.803-0.808-2.229 0-3.117 0.89-0.802 2.306-0.802 3.109 0.09l3.655 4.184-0.355-5.608c0-1.155 0.978-2.225 2.219-2.225 1.25 0 2.225 1.069 2.135 2.225l-0.353 5.608 3.745-4.184c0.794-0.892 2.221-0.803 3.109 0 0.804 0.89 0.894 2.311-0.086 3.114l-4.093 3.65 5.514-0.357c1.246 0 2.22 0.979 2.22 2.226C62.25 35.436 61.19 36.417 60.03 36.325" fill="#c1c1c1" data-fill-palette-color="accent"></path><path d="M47.835 37.851v38.03c0 1.178 1.007 2.188 2.181 2.188 1.23 0 2.182-1.01 2.182-2.131V37.851H47.835z" fill="#c1c1c1" data-fill-palette-color="accent"></path><path d="M55.121 61.512c0-1.174 1.008-2.125 2.182-2.125 1.231 0 2.182 0.951 2.182 2.125v14.443c0 1.123-0.95 2.129-2.182 2.129-1.174 0-2.182-1.006-2.182-2.186V61.512z" fill="#c1c1c1" data-fill-palette-color="accent"></path><path d="M62.418 71.227c0-1.176 1.011-2.129 2.183-2.129 1.228 0.004 2.18 0.953 2.18 2.129l-0.005 4.711c0 1.121-0.95 2.131-2.182 2.131-1.175 0-2.176-1.01-2.176-2.188V71.227z" fill="#c1c1c1" data-fill-palette-color="accent"></path><path d="M69.723 71.227c0-1.176 1.012-2.129 2.181-2.129 1.231 0 2.183 0.953 2.183 2.129l-0.004 4.711c0 1.121-0.95 2.125-2.184 2.131-1.173-0.006-2.176-1.016-2.176-2.188V71.227z" fill="#c1c1c1" data-fill-palette-color="accent"></path><path d="M33.218 61.516c0-1.174 1.008-2.125 2.183-2.125 1.23 0 2.182 0.951 2.182 2.125v14.445c0 1.123-0.951 2.129-2.182 2.129-1.175 0-2.183-1.006-2.183-2.184V61.516z" fill="#c1c1c1" data-fill-palette-color="accent"></path><path d="M40.519 71.227c0-1.176 1.013-2.129 2.183-2.129 1.23 0 2.182 0.953 2.182 2.129l-0.005 4.711c0 1.121-0.95 2.125-2.183 2.131-1.174-0.006-2.177-1.016-2.177-2.188V71.227z" fill="#c1c1c1" data-fill-palette-color="accent"></path><path d="M25.914 71.227c0-1.176 1.013-2.129 2.183-2.129 1.23 0 2.183 0.953 2.183 2.129l-0.006 4.711c0 1.121-0.95 2.125-2.182 2.131-1.174-0.006-2.178-1.016-2.178-2.188V71.227z" fill="#c1c1c1" data-fill-palette-color="accent"></path></g></svg></g><g transform="matrix(1,0,0,1,208.71380739587045,15.980749999999997)"><svg width="154.70000000000002" viewBox="1.75 -26.9 154.69 27.5" height="27.500000000000007" data-palette-color="#fe0039"><path d="M13.35 0.6Q7.35 0.6 4.55-2.73 1.75-6.05 1.75-13.15L1.75-13.15Q1.75-20.2 4.58-23.55 7.4-26.9 13.35-26.9L13.35-26.9Q18.75-26.9 21.25-24.3 23.75-21.7 23.75-16.55L23.75-16.55 19.25-16.55Q19.25-20.1 17.98-21.68 16.7-23.25 13.35-23.25L13.35-23.25Q9.7-23.25 8-20.88 6.3-18.5 6.3-13.15L6.3-13.15 6.3-12.95Q6.3-7.65 7.95-5.35 9.6-3.05 13.35-3.05L13.35-3.05Q16.65-3.05 18.07-4.73 19.5-6.4 19.5-9.75L19.5-9.75 23.75-9.75Q23.75-5.25 21.2-2.33 18.65 0.6 13.35 0.6L13.35 0.6ZM35.5 0.6Q32.1 0.6 29.45-1 26.8-2.6 26.8-6.8L26.8-6.8Q26.8-11.85 31.3-13.73 35.8-15.6 44.3-15.6L44.3-15.6 44.3-18.5Q44.3-20.8 43-22.03 41.7-23.25 38.3-23.25L38.3-23.25Q35.1-23.25 33.72-22.05 32.35-20.85 32.35-19.1L32.35-19.1 32.35-18.5 28.1-18.5Q28.05-18.8 28.05-19.6L28.05-19.6Q28.05-23.1 30.95-25 33.85-26.9 38.7-26.9L38.7-26.9Q43.6-26.9 46.15-24.85 48.7-22.8 48.7-19.05L48.7-19.05 48.7-4.8Q48.7-3.9 49.2-3.48 49.7-3.05 50.45-3.05L50.45-3.05 52.45-3.05 52.45-0.2Q51.15 0.4 49.05 0.4L49.05 0.4Q47.35 0.4 46.2-0.63 45.05-1.65 44.65-3.35L44.65-3.35 44.3-3.35Q42.95-1.5 40.62-0.45 38.3 0.6 35.5 0.6L35.5 0.6ZM36.65-3.05Q38.6-3.05 40.35-3.85 42.1-4.65 43.2-6.23 44.3-7.8 44.3-10.05L44.3-10.05 44.3-11.95Q37.85-11.95 34.62-10.93 31.4-9.9 31.4-7.05L31.4-7.05Q31.4-4.9 32.72-3.98 34.05-3.05 36.65-3.05L36.65-3.05ZM56.15 0L56.15-26.3 59.5-26.3 60-22.75 60.34-22.75Q63.25-26.9 69.2-26.9L69.2-26.9Q73.15-26.9 75.27-24.78 77.4-22.65 77.4-17.95L77.4-17.95 77.4 0 73 0 73-17.65Q73-20.8 71.59-22.03 70.2-23.25 67.55-23.25L67.55-23.25Q65.65-23.25 64.05-22.33 62.45-21.4 61.5-19.65 60.55-17.9 60.55-15.55L60.55-15.55 60.55 0 56.15 0ZM90.89 0L81.24-26.3 85.89-26.3 90.54-13.15Q91.54-10.35 93.14-4.9L93.14-4.9 93.39-4.9Q94.84-10.05 95.94-13.15L95.94-13.15 100.54-26.3 104.94-26.3 95.29 0 90.89 0ZM116.09 0.6Q112.69 0.6 110.04-1 107.39-2.6 107.39-6.8L107.39-6.8Q107.39-11.85 111.89-13.73 116.39-15.6 124.89-15.6L124.89-15.6 124.89-18.5Q124.89-20.8 123.59-22.03 122.29-23.25 118.89-23.25L118.89-23.25Q115.69-23.25 114.31-22.05 112.94-20.85 112.94-19.1L112.94-19.1 112.94-18.5 108.69-18.5Q108.64-18.8 108.64-19.6L108.64-19.6Q108.64-23.1 111.54-25 114.44-26.9 119.29-26.9L119.29-26.9Q124.19-26.9 126.74-24.85 129.29-22.8 129.29-19.05L129.29-19.05 129.29-4.8Q129.29-3.9 129.79-3.48 130.29-3.05 131.04-3.05L131.04-3.05 133.04-3.05 133.04-0.2Q131.74 0.4 129.64 0.4L129.64 0.4Q127.94 0.4 126.79-0.63 125.64-1.65 125.24-3.35L125.24-3.35 124.89-3.35Q123.54-1.5 121.22-0.45 118.89 0.6 116.09 0.6L116.09 0.6ZM117.24-3.05Q119.19-3.05 120.94-3.85 122.69-4.65 123.79-6.23 124.89-7.8 124.89-10.05L124.89-10.05 124.89-11.95Q118.44-11.95 115.22-10.93 111.99-9.9 111.99-7.05L111.99-7.05Q111.99-4.9 113.31-3.98 114.64-3.05 117.24-3.05L117.24-3.05ZM145.74 0.6Q142.09 0.6 139.66-0.48 137.24-1.55 136.09-3.3 134.94-5.05 134.94-7.1L134.94-7.1Q134.94-7.7 134.96-7.93 134.99-8.15 134.99-8.2L134.99-8.2 139.34-8.2 139.34-7.7Q139.34-5.35 141.19-4.17 143.04-3 145.99-3L145.99-3Q148.54-3 150.21-4.03 151.89-5.05 151.89-6.9L151.89-6.9Q151.89-8.35 150.94-9.28 149.99-10.2 148.59-10.73 147.19-11.25 144.79-11.85L144.79-11.85Q141.89-12.6 140.06-13.35 138.24-14.1 136.96-15.58 135.69-17.05 135.69-19.4L135.69-19.4Q135.69-22.85 138.51-24.88 141.34-26.9 146.14-26.9L146.14-26.9Q149.14-26.9 151.34-25.93 153.54-24.95 154.66-23.33 155.79-21.7 155.79-19.7L155.79-19.7 155.74-18.75 151.44-18.75 151.44-19.2Q151.44-20.95 150.06-22.1 148.69-23.25 145.64-23.25L145.64-23.25Q142.64-23.25 141.44-22.18 140.24-21.1 140.24-19.7L140.24-19.7Q140.24-18.55 141.09-17.8 141.94-17.05 143.19-16.6 144.44-16.15 146.69-15.6L146.69-15.6Q149.79-14.8 151.74-14.03 153.69-13.25 155.06-11.68 156.44-10.1 156.44-7.5L156.44-7.5Q156.44-3.45 153.51-1.43 150.59 0.6 145.74 0.6L145.74 0.6Z" opacity="1" transform="matrix(1,0,0,1,0,0)" fill="#fe0039" class="undefined-yy-1"></path></svg></g></svg></g></svg></g></svg></g></svg></g></svg></g></svg></g><path d="M209.846 97.603L209.846 31.395 394.257 31.395 394.257 215.805 209.846 215.805 209.846 149.597 211.514 149.597 211.514 214.137 392.589 214.137 392.589 33.063 211.514 33.063 211.514 97.603Z" fill="#fe0039" stroke="transparent" data-fill-palette-color="tertiary"></path></svg></g><defs></defs></svg><rect width="395.52" height="247.2" fill="none" stroke="none" visibility="hidden"></rect></g></svg></g></svg>